<svg width="1440" height="889" viewBox="0 0 1440 889" fill="none" xmlns="http://www.w3.org/2000/svg">
<rect width="1440" height="889" fill="#FF8686"/>
<rect y="530" width="171" height="1440" transform="rotate(-90 0 530)" fill="#FFFAFA"/>
<rect x="635" width="171" height="889" fill="#FFFAFA"/>
<path d="M354.451 260.252C519.251 313.852 605.451 458.586 627.951 524.252H806.451C730.784 349.086 575.751 19.1524 560.951 100.752C542.451 202.752 148.451 193.252 354.451 260.252Z" fill="white" stroke="#E27979" stroke-width="10"/>
<path d="M1083 260.252C918.2 313.852 832 458.586 809.5 524.252H631C706.667 349.086 861.7 19.1524 876.5 100.752C895 202.752 1289 193.252 1083 260.252Z" fill="white" stroke="#E27979" stroke-width="10"/>
<path d="M356.451 623C521.251 569.4 607.451 424.667 629.951 359H808.451C732.784 534.167 577.751 864.1 562.951 782.5C544.451 680.5 150.451 690 356.451 623Z" fill="white" stroke="#E27979" stroke-width="10"/>
<path d="M1085 623C920.2 569.4 834 424.667 811.5 359H633C708.667 534.167 863.7 864.1 878.5 782.5C897 680.5 1291 690 1085 623Z" fill="white" stroke="#E27979" stroke-width="10"/>
<path d="M614.435 374.138C611.145 374.141 607.991 375.45 605.665 377.776C603.339 380.102 602.031 383.256 602.027 386.545C597.31 421.279 595.734 456.367 597.32 491.384C597.414 493.62 597.519 495.665 597.64 497.638C597.816 500.896 598.039 504.336 598.304 507.863C598.456 509.944 598.616 512.031 598.792 514.111C599.086 517.499 599.408 520.942 599.752 524.343C599.968 526.421 600.192 528.509 600.431 530.589C600.891 534.673 601.412 538.86 602.024 543.389C602.018 546.687 603.322 549.853 605.649 552.189C607.976 554.526 611.137 555.843 614.435 555.85H822.564C825.854 555.847 829.007 554.538 831.334 552.212C833.66 549.886 834.968 546.732 834.972 543.443L834.981 543.357C835.908 539.133 836.772 534.829 837.548 530.563C837.963 528.314 838.321 526.271 838.644 524.318C839.228 520.763 839.747 517.322 840.186 514.091C840.487 511.922 840.759 509.821 840.994 507.845C841.382 504.611 841.732 501.268 842.066 497.625C842.248 495.645 842.415 493.6 842.578 491.374V491.373C845.122 456.275 842.564 420.994 834.981 386.631L834.972 386.545C834.968 383.256 833.66 380.102 831.334 377.776C829.007 375.45 825.854 374.141 822.564 374.138L614.435 374.138Z" fill="#3F3D56"/>
<path d="M726.58 427.256C681.484 427.256 633.698 423.158 571.157 414.96H571.15C567.908 414.956 564.781 413.754 562.37 411.587C559.958 409.42 558.432 406.439 558.083 403.215C558.026 402.731 557.998 402.243 558 401.755V364.132C557.999 364.051 558.003 363.971 558.011 363.891C558.082 360.434 559.502 357.142 561.968 354.718C564.434 352.295 567.751 350.933 571.209 350.923C680.017 336.129 746.114 336.131 865.84 350.927H865.846C869.302 350.949 872.611 352.323 875.068 354.753C877.524 357.184 878.932 360.479 878.992 363.934C878.999 363.999 879.001 364.066 878.999 364.132V401.755C879.001 402.244 878.974 402.733 878.917 403.219C878.562 406.451 877.026 409.438 874.604 411.605C872.181 413.773 869.042 414.969 865.791 414.963C814.064 423.157 771.666 427.256 726.58 427.256Z" fill="#FF8686"/>
<path d="M733.814 453.387H706.452C702.97 453.383 699.631 451.998 697.169 449.536C694.706 447.073 693.321 443.734 693.317 440.252V340.845C693.321 337.362 694.706 334.024 697.169 331.561C699.631 329.099 702.97 327.713 706.452 327.709H733.814C737.297 327.713 740.636 329.099 743.098 331.561C745.561 334.024 746.946 337.362 746.95 340.845V440.252C746.946 443.735 745.561 447.073 743.098 449.536C740.636 451.998 737.297 453.384 733.814 453.387Z" fill="#3F3D56"/>
<path d="M795.935 308.687C795.737 306.824 795.388 304.979 794.892 303.172C794.356 301.361 793.678 299.596 792.863 297.892C789.945 291.629 785.021 286.516 778.872 283.364C771.24 279.607 762.509 279.3 754.303 281.11C747.405 282.655 740.928 285.688 735.323 289.996C732.418 292.185 729.763 294.689 727.407 297.462C724.976 300.379 720.453 308.394 720.127 309.136C717.57 303.331 713.901 298.082 709.326 293.686C704.009 288.639 697.662 284.803 690.722 282.443C687.032 281.199 683.202 280.421 679.319 280.125C675.211 279.783 671.075 280.144 667.088 281.192C659.927 283.198 653.732 287.726 649.647 293.941C645.755 299.717 643.844 306.601 644.2 313.558C644.397 317.07 645.155 320.528 646.444 323.801C647.135 325.572 647.954 327.291 648.895 328.943C649.87 330.576 650.959 332.136 652.155 333.613C656.847 339.372 663.168 343.581 670.292 345.691C677.896 348.041 685.963 348.118 693.783 347.014C701.813 345.881 709.543 343.282 717.106 340.435C718.115 340.055 719.12 339.664 720.126 339.277C726.85 341.864 733.631 344.358 740.669 345.942C748.587 347.854 756.805 348.184 764.851 346.912C772.351 345.681 779.323 342.275 784.904 337.116C790.068 332.257 793.682 325.981 795.293 319.076C796.088 315.673 796.305 312.162 795.935 308.687ZM691.694 339.281C687.354 339.837 682.963 339.863 678.616 339.357C675.501 338.906 672.449 338.094 669.522 336.937C662.621 334.063 657.121 328.602 654.198 321.723C653.324 319.554 652.702 317.292 652.344 314.982C652.114 312.926 652.113 310.851 652.342 308.796C652.682 306.633 653.266 304.516 654.081 302.484C654.962 300.507 656.057 298.633 657.345 296.895C658.595 295.339 660.007 293.921 661.557 292.664C663.026 291.578 664.608 290.651 666.274 289.9C668.264 289.123 670.333 288.57 672.444 288.25C675.304 287.933 678.191 287.956 681.046 288.317C684.443 288.841 687.768 289.758 690.953 291.048C694.342 292.519 697.544 294.386 700.494 296.61C703.222 298.772 705.696 301.238 707.866 303.96C710.015 306.818 711.816 309.921 713.234 313.204C714.611 316.629 715.579 320.204 716.116 323.856L716.122 323.91C715.913 325.745 715.808 327.59 715.808 329.437C715.809 330.149 715.841 330.859 715.876 331.569C715.538 331.895 715.256 332.274 715.042 332.692C709.466 334.88 703.751 336.692 697.933 338.118C695.871 338.594 693.792 338.982 691.694 339.281ZM787.926 314.982C787.568 317.292 786.945 319.554 786.072 321.723C783.163 328.612 777.658 334.078 770.748 336.937C767.821 338.094 764.769 338.906 761.654 339.357C757.299 339.864 752.9 339.837 748.552 339.278C740.829 338.174 733.379 335.736 726.091 333.015C725.791 332.903 725.494 332.785 725.194 332.672C724.991 332.261 724.721 331.886 724.396 331.562C724.524 328.985 724.444 326.401 724.157 323.836C724.695 320.191 725.662 316.622 727.036 313.204C728.453 309.921 730.255 306.818 732.404 303.961C734.574 301.238 737.048 298.772 739.776 296.61C742.726 294.386 745.928 292.519 749.317 291.048C752.502 289.758 755.827 288.841 759.224 288.317C762.079 287.956 764.966 287.933 767.826 288.25C769.937 288.57 772.006 289.123 773.995 289.9C775.662 290.651 777.244 291.578 778.713 292.665C780.264 293.921 781.675 295.339 782.925 296.895C784.213 298.633 785.308 300.508 786.189 302.484C787.004 304.516 787.588 306.633 787.928 308.796C788.157 310.851 788.156 312.926 787.926 314.982Z" fill="#3F3D56"/>
<path d="M617.819 384.333C617.266 385.209 615.923 385.081 615.17 384.534C614.123 383.774 614.462 382.31 615.183 381.445C617.473 378.696 621.26 381.599 621.771 384.329C621.961 385.66 621.756 387.017 621.181 388.233C620.607 389.449 619.688 390.469 618.539 391.167C615.926 392.716 612.533 391.939 610.286 390.086C605.601 386.221 606.876 378.482 612.081 375.685C615.403 373.9 619.602 374.684 622.874 376.179C626.558 377.862 629.725 380.441 633.131 382.591C640.605 387.27 649.06 390.156 657.834 391.026C659.37 391.183 659.36 388.78 657.834 388.625C652.972 388.122 648.198 386.973 643.64 385.207C639.13 383.379 634.85 381.029 630.886 378.206C626.875 375.457 622.685 372.787 617.721 372.332C615.718 372.099 613.689 372.399 611.84 373.204C609.991 374.008 608.388 375.288 607.194 376.913C606.132 378.367 605.421 380.048 605.117 381.823C604.813 383.598 604.924 385.419 605.441 387.143C606.065 388.947 607.155 390.553 608.602 391.798C610.048 393.043 611.798 393.883 613.674 394.232C615.481 394.573 617.348 394.342 619.017 393.571C620.685 392.8 622.072 391.528 622.983 389.931C624.81 386.772 624.75 382.528 621.991 379.908C621.2 379.104 620.21 378.524 619.121 378.228C618.033 377.932 616.886 377.931 615.797 378.223C614.793 378.562 613.91 379.186 613.256 380.019C612.601 380.852 612.204 381.858 612.112 382.913C611.846 387.014 617.667 389.065 619.893 385.545C620.721 384.235 618.644 383.029 617.819 384.333Z" fill="#3F3D56"/>
<path d="M823.183 384.333C823.737 385.209 825.079 385.081 825.833 384.534C826.879 383.774 826.54 382.31 825.82 381.445C823.53 378.696 819.742 381.599 819.232 384.329C819.042 385.66 819.247 387.017 819.821 388.233C820.396 389.449 821.314 390.469 822.463 391.167C825.076 392.716 828.47 391.939 830.716 390.086C835.402 386.221 834.126 378.482 828.921 375.685C825.599 373.9 821.4 374.684 818.128 376.179C814.445 377.862 811.277 380.441 807.871 382.591C800.397 387.27 791.942 390.156 783.168 391.026C781.632 391.183 781.643 388.78 783.168 388.625C788.03 388.122 792.804 386.973 797.362 385.207C801.872 383.379 806.153 381.029 810.117 378.206C814.127 375.457 818.318 372.787 823.281 372.332C825.284 372.099 827.313 372.399 829.162 373.204C831.011 374.008 832.614 375.288 833.809 376.913C834.871 378.367 835.582 380.048 835.886 381.823C836.19 383.598 836.079 385.419 835.561 387.143C834.938 388.947 833.847 390.553 832.401 391.798C830.955 393.043 829.204 393.883 827.328 394.232C825.522 394.573 823.654 394.342 821.986 393.571C820.317 392.8 818.93 391.528 818.02 389.931C816.193 386.772 816.252 382.528 819.012 379.908C819.802 379.104 820.793 378.524 821.881 378.228C822.969 377.932 824.117 377.931 825.206 378.223C826.209 378.562 827.092 379.186 827.747 380.019C828.401 380.852 828.799 381.858 828.891 382.913C829.157 387.014 823.335 389.065 821.11 385.545C820.281 384.235 822.359 383.029 823.183 384.333Z" fill="#3F3D56"/>
<path d="M637.517 485V467.545H644.506C645.79 467.545 646.861 467.736 647.719 468.116C648.577 468.497 649.222 469.026 649.653 469.702C650.085 470.372 650.301 471.145 650.301 472.02C650.301 472.702 650.165 473.301 649.892 473.818C649.619 474.33 649.244 474.75 648.767 475.08C648.295 475.403 647.756 475.634 647.148 475.77V475.94C647.813 475.969 648.435 476.156 649.014 476.503C649.599 476.849 650.074 477.335 650.438 477.96C650.801 478.58 650.983 479.318 650.983 480.176C650.983 481.102 650.753 481.929 650.293 482.656C649.838 483.378 649.165 483.949 648.273 484.369C647.381 484.79 646.281 485 644.974 485H637.517ZM641.207 481.983H644.216C645.244 481.983 645.994 481.787 646.466 481.395C646.938 480.997 647.173 480.469 647.173 479.81C647.173 479.327 647.057 478.901 646.824 478.531C646.591 478.162 646.259 477.872 645.827 477.662C645.401 477.452 644.892 477.347 644.301 477.347H641.207V481.983ZM641.207 474.849H643.943C644.449 474.849 644.898 474.761 645.29 474.585C645.688 474.403 646 474.148 646.227 473.818C646.46 473.489 646.577 473.094 646.577 472.634C646.577 472.003 646.352 471.494 645.903 471.108C645.46 470.722 644.83 470.528 644.011 470.528H641.207V474.849ZM661.711 479.426V471.909H665.342V485H661.856V482.622H661.719C661.424 483.389 660.933 484.006 660.245 484.472C659.563 484.937 658.731 485.17 657.748 485.17C656.873 485.17 656.103 484.972 655.438 484.574C654.773 484.176 654.254 483.611 653.879 482.878C653.509 482.145 653.322 481.267 653.316 480.244V471.909H656.947V479.597C656.952 480.369 657.16 480.98 657.569 481.429C657.978 481.878 658.526 482.102 659.214 482.102C659.651 482.102 660.06 482.003 660.441 481.804C660.822 481.599 661.129 481.298 661.362 480.901C661.6 480.503 661.717 480.011 661.711 479.426ZM671.536 481.233L671.544 476.878H672.072L676.266 471.909H680.433L674.8 478.489H673.939L671.536 481.233ZM668.246 485V467.545H671.876V485H668.246ZM676.428 485L672.575 479.298L674.996 476.733L680.68 485H676.428ZM685.947 485.247C685.112 485.247 684.368 485.102 683.714 484.812C683.061 484.517 682.544 484.082 682.163 483.509C681.788 482.929 681.601 482.207 681.601 481.344C681.601 480.616 681.734 480.006 682.001 479.511C682.268 479.017 682.632 478.619 683.092 478.318C683.553 478.017 684.075 477.79 684.661 477.636C685.251 477.483 685.871 477.375 686.518 477.312C687.28 477.233 687.893 477.159 688.359 477.091C688.825 477.017 689.163 476.909 689.374 476.767C689.584 476.625 689.689 476.415 689.689 476.136V476.085C689.689 475.545 689.518 475.128 689.178 474.832C688.842 474.537 688.365 474.389 687.746 474.389C687.092 474.389 686.572 474.534 686.186 474.824C685.8 475.108 685.544 475.466 685.419 475.898L682.061 475.625C682.232 474.83 682.567 474.142 683.067 473.562C683.567 472.977 684.212 472.528 685.001 472.216C685.797 471.898 686.717 471.739 687.763 471.739C688.49 471.739 689.186 471.824 689.851 471.994C690.521 472.165 691.115 472.429 691.632 472.787C692.155 473.145 692.567 473.605 692.868 474.168C693.169 474.724 693.32 475.392 693.32 476.17V485H689.876V483.185H689.774C689.564 483.594 689.283 483.955 688.93 484.267C688.578 484.574 688.155 484.815 687.661 484.991C687.166 485.162 686.595 485.247 685.947 485.247ZM686.987 482.741C687.521 482.741 687.993 482.636 688.402 482.426C688.811 482.21 689.132 481.92 689.365 481.557C689.598 481.193 689.714 480.781 689.714 480.321V478.932C689.601 479.006 689.445 479.074 689.246 479.136C689.053 479.193 688.834 479.247 688.589 479.298C688.345 479.344 688.101 479.386 687.857 479.426C687.612 479.46 687.391 479.491 687.192 479.52C686.766 479.582 686.393 479.682 686.075 479.818C685.757 479.955 685.51 480.139 685.334 480.372C685.158 480.599 685.07 480.884 685.07 481.224C685.07 481.719 685.249 482.097 685.607 482.358C685.97 482.614 686.43 482.741 686.987 482.741ZM711.228 472.565C711.16 471.878 710.867 471.344 710.35 470.963C709.833 470.582 709.131 470.392 708.245 470.392C707.643 470.392 707.134 470.477 706.719 470.648C706.305 470.812 705.987 471.043 705.765 471.338C705.549 471.634 705.441 471.969 705.441 472.344C705.43 472.656 705.495 472.929 705.637 473.162C705.785 473.395 705.987 473.597 706.242 473.767C706.498 473.932 706.793 474.077 707.129 474.202C707.464 474.321 707.822 474.423 708.202 474.509L709.771 474.884C710.532 475.054 711.231 475.281 711.867 475.565C712.504 475.849 713.055 476.199 713.521 476.614C713.987 477.028 714.347 477.517 714.603 478.08C714.864 478.642 714.998 479.287 715.004 480.014C714.998 481.082 714.725 482.009 714.185 482.793C713.651 483.571 712.879 484.176 711.867 484.608C710.862 485.034 709.648 485.247 708.228 485.247C706.819 485.247 705.592 485.031 704.546 484.599C703.506 484.168 702.694 483.528 702.109 482.682C701.529 481.83 701.225 480.776 701.197 479.52H704.768C704.808 480.105 704.975 480.594 705.271 480.986C705.572 481.372 705.972 481.665 706.472 481.864C706.978 482.057 707.549 482.153 708.185 482.153C708.81 482.153 709.353 482.062 709.813 481.881C710.279 481.699 710.64 481.446 710.896 481.122C711.151 480.798 711.279 480.426 711.279 480.006C711.279 479.614 711.163 479.284 710.93 479.017C710.702 478.75 710.367 478.523 709.924 478.335C709.487 478.148 708.95 477.977 708.313 477.824L706.413 477.347C704.941 476.989 703.779 476.429 702.927 475.668C702.075 474.906 701.651 473.881 701.657 472.591C701.651 471.534 701.933 470.611 702.501 469.821C703.075 469.031 703.862 468.415 704.862 467.972C705.862 467.528 706.998 467.307 708.271 467.307C709.566 467.307 710.697 467.528 711.663 467.972C712.634 468.415 713.39 469.031 713.93 469.821C714.469 470.611 714.748 471.526 714.765 472.565H711.228ZM723.384 485.256C722.037 485.256 720.878 484.983 719.906 484.438C718.94 483.886 718.196 483.108 717.673 482.102C717.151 481.091 716.889 479.895 716.889 478.514C716.889 477.168 717.151 475.986 717.673 474.969C718.196 473.952 718.932 473.159 719.881 472.591C720.835 472.023 721.955 471.739 723.239 471.739C724.102 471.739 724.906 471.878 725.651 472.156C726.401 472.429 727.054 472.841 727.611 473.392C728.173 473.943 728.611 474.636 728.923 475.472C729.236 476.301 729.392 477.273 729.392 478.386V479.384H718.338V477.134H725.974C725.974 476.611 725.861 476.148 725.634 475.744C725.406 475.341 725.091 475.026 724.688 474.798C724.29 474.565 723.827 474.449 723.298 474.449C722.747 474.449 722.259 474.577 721.832 474.832C721.412 475.082 721.082 475.42 720.844 475.847C720.605 476.267 720.483 476.736 720.477 477.253V479.392C720.477 480.04 720.597 480.599 720.835 481.071C721.08 481.543 721.423 481.906 721.866 482.162C722.31 482.418 722.835 482.545 723.443 482.545C723.847 482.545 724.216 482.489 724.551 482.375C724.886 482.261 725.173 482.091 725.412 481.864C725.651 481.636 725.832 481.358 725.957 481.028L729.315 481.25C729.145 482.057 728.795 482.761 728.267 483.364C727.744 483.96 727.068 484.426 726.239 484.761C725.415 485.091 724.463 485.256 723.384 485.256ZM735.051 481.233L735.06 476.878H735.588L739.781 471.909H743.949L738.315 478.489H737.455L735.051 481.233ZM731.761 485V467.545H735.392V485H731.761ZM739.943 485L736.091 479.298L738.511 476.733L744.196 485H739.943ZM749.463 485.247C748.628 485.247 747.884 485.102 747.23 484.812C746.577 484.517 746.06 484.082 745.679 483.509C745.304 482.929 745.116 482.207 745.116 481.344C745.116 480.616 745.25 480.006 745.517 479.511C745.784 479.017 746.148 478.619 746.608 478.318C747.068 478.017 747.591 477.79 748.176 477.636C748.767 477.483 749.386 477.375 750.034 477.312C750.795 477.233 751.409 477.159 751.875 477.091C752.341 477.017 752.679 476.909 752.889 476.767C753.099 476.625 753.205 476.415 753.205 476.136V476.085C753.205 475.545 753.034 475.128 752.693 474.832C752.358 474.537 751.881 474.389 751.261 474.389C750.608 474.389 750.088 474.534 749.702 474.824C749.315 475.108 749.06 475.466 748.935 475.898L745.577 475.625C745.747 474.83 746.082 474.142 746.582 473.562C747.082 472.977 747.727 472.528 748.517 472.216C749.313 471.898 750.233 471.739 751.278 471.739C752.006 471.739 752.702 471.824 753.366 471.994C754.037 472.165 754.631 472.429 755.148 472.787C755.67 473.145 756.082 473.605 756.384 474.168C756.685 474.724 756.835 475.392 756.835 476.17V485H753.392V483.185H753.29C753.08 483.594 752.798 483.955 752.446 484.267C752.094 484.574 751.67 484.815 751.176 484.991C750.682 485.162 750.111 485.247 749.463 485.247ZM750.503 482.741C751.037 482.741 751.509 482.636 751.918 482.426C752.327 482.21 752.648 481.92 752.881 481.557C753.114 481.193 753.23 480.781 753.23 480.321V478.932C753.116 479.006 752.96 479.074 752.761 479.136C752.568 479.193 752.349 479.247 752.105 479.298C751.861 479.344 751.616 479.386 751.372 479.426C751.128 479.46 750.906 479.491 750.707 479.52C750.281 479.582 749.909 479.682 749.591 479.818C749.273 479.955 749.026 480.139 748.849 480.372C748.673 480.599 748.585 480.884 748.585 481.224C748.585 481.719 748.764 482.097 749.122 482.358C749.486 482.614 749.946 482.741 750.503 482.741ZM759.652 485V471.909H763.172V474.193H763.308C763.547 473.381 763.947 472.767 764.51 472.352C765.072 471.932 765.72 471.722 766.453 471.722C766.635 471.722 766.831 471.733 767.041 471.756C767.251 471.778 767.436 471.81 767.595 471.849V475.071C767.425 475.02 767.189 474.974 766.888 474.935C766.587 474.895 766.311 474.875 766.061 474.875C765.527 474.875 765.05 474.991 764.629 475.224C764.214 475.452 763.885 475.77 763.641 476.179C763.402 476.588 763.283 477.06 763.283 477.594V485H759.652ZM772.83 485.247C771.995 485.247 771.251 485.102 770.597 484.812C769.944 484.517 769.427 484.082 769.046 483.509C768.671 482.929 768.484 482.207 768.484 481.344C768.484 480.616 768.617 480.006 768.884 479.511C769.151 479.017 769.515 478.619 769.975 478.318C770.435 478.017 770.958 477.79 771.543 477.636C772.134 477.483 772.754 477.375 773.401 477.312C774.163 477.233 774.776 477.159 775.242 477.091C775.708 477.017 776.046 476.909 776.256 476.767C776.467 476.625 776.572 476.415 776.572 476.136V476.085C776.572 475.545 776.401 475.128 776.06 474.832C775.725 474.537 775.248 474.389 774.629 474.389C773.975 474.389 773.455 474.534 773.069 474.824C772.683 475.108 772.427 475.466 772.302 475.898L768.944 475.625C769.114 474.83 769.45 474.142 769.95 473.562C770.45 472.977 771.094 472.528 771.884 472.216C772.68 471.898 773.6 471.739 774.646 471.739C775.373 471.739 776.069 471.824 776.734 471.994C777.404 472.165 777.998 472.429 778.515 472.787C779.038 473.145 779.45 473.605 779.751 474.168C780.052 474.724 780.202 475.392 780.202 476.17V485H776.759V483.185H776.657C776.447 483.594 776.165 483.955 775.813 484.267C775.461 484.574 775.038 484.815 774.543 484.991C774.049 485.162 773.478 485.247 772.83 485.247ZM773.87 482.741C774.404 482.741 774.876 482.636 775.285 482.426C775.694 482.21 776.015 481.92 776.248 481.557C776.481 481.193 776.597 480.781 776.597 480.321V478.932C776.484 479.006 776.327 479.074 776.129 479.136C775.935 479.193 775.717 479.247 775.472 479.298C775.228 479.344 774.984 479.386 774.739 479.426C774.495 479.46 774.273 479.491 774.075 479.52C773.648 479.582 773.276 479.682 772.958 479.818C772.64 479.955 772.393 480.139 772.217 480.372C772.04 480.599 771.952 480.884 771.952 481.224C771.952 481.719 772.131 482.097 772.489 482.358C772.853 482.614 773.313 482.741 773.87 482.741ZM786.65 477.432V485H783.019V471.909H786.479V474.219H786.633C786.923 473.457 787.408 472.855 788.09 472.412C788.772 471.963 789.599 471.739 790.57 471.739C791.479 471.739 792.272 471.938 792.948 472.335C793.624 472.733 794.15 473.301 794.525 474.04C794.9 474.773 795.087 475.648 795.087 476.665V485H791.457V477.312C791.462 476.511 791.258 475.886 790.843 475.438C790.428 474.983 789.857 474.756 789.13 474.756C788.641 474.756 788.21 474.861 787.835 475.071C787.465 475.281 787.175 475.588 786.965 475.991C786.761 476.389 786.656 476.869 786.65 477.432ZM803.847 490.182C802.67 490.182 801.662 490.02 800.821 489.696C799.986 489.378 799.321 488.943 798.827 488.392C798.332 487.841 798.011 487.222 797.864 486.534L801.222 486.082C801.324 486.344 801.486 486.588 801.707 486.815C801.929 487.043 802.222 487.224 802.585 487.361C802.955 487.503 803.403 487.574 803.932 487.574C804.722 487.574 805.372 487.381 805.884 486.994C806.401 486.614 806.659 485.974 806.659 485.077V482.682H806.506C806.347 483.045 806.108 483.389 805.79 483.713C805.472 484.037 805.062 484.301 804.562 484.506C804.062 484.71 803.466 484.812 802.773 484.812C801.79 484.812 800.895 484.585 800.088 484.131C799.287 483.67 798.648 482.969 798.17 482.026C797.699 481.077 797.463 479.878 797.463 478.429C797.463 476.946 797.705 475.707 798.188 474.713C798.67 473.719 799.313 472.974 800.114 472.48C800.92 471.986 801.804 471.739 802.764 471.739C803.497 471.739 804.111 471.864 804.605 472.114C805.099 472.358 805.497 472.665 805.798 473.034C806.105 473.398 806.341 473.756 806.506 474.108H806.642V471.909H810.247V485.128C810.247 486.241 809.974 487.173 809.429 487.923C808.884 488.673 808.128 489.236 807.162 489.611C806.202 489.991 805.097 490.182 803.847 490.182ZM803.923 482.085C804.509 482.085 805.003 481.94 805.406 481.651C805.815 481.355 806.128 480.935 806.344 480.389C806.565 479.838 806.676 479.179 806.676 478.412C806.676 477.645 806.568 476.98 806.352 476.418C806.136 475.849 805.824 475.409 805.415 475.097C805.006 474.784 804.509 474.628 803.923 474.628C803.327 474.628 802.824 474.79 802.415 475.114C802.006 475.432 801.696 475.875 801.486 476.443C801.276 477.011 801.17 477.668 801.17 478.412C801.17 479.168 801.276 479.821 801.486 480.372C801.702 480.918 802.011 481.341 802.415 481.642C802.824 481.937 803.327 482.085 803.923 482.085Z" fill="white"/>
</svg>
